<?xml version="1.0" encoding="utf-8"?>
<!-- Generator: Adobe Illustrator 16.0.3, SVG Export Plug-In . SVG Version: 6.00 Build 0)  -->
<!DOCTYPE svg PUBLIC "-//W3C//DTD SVG 1.1//EN" "http://www.w3.org/Graphics/SVG/1.1/DTD/svg11.dtd">
<svg version="1.1" id="Шар_1" xmlns="http://www.w3.org/2000/svg" xmlns:xlink="http://www.w3.org/1999/xlink" x="0px" y="0px"
	 width="359.232px" height="402px" viewBox="0 0 359.232 402" enable-background="new 0 0 359.232 402" xml:space="preserve">
<g>
	<defs>
		<rect id="SVGID_1_" y="-25.815" width="359.232" height="458.148"/>
	</defs>
	<clipPath id="SVGID_2_">
		<use xlink:href="#SVGID_1_"  overflow="visible"/>
	</clipPath>
	<g clip-path="url(#SVGID_2_)">
		<defs>
			<rect id="SVGID_3_" y="-25.815" width="359.232" height="458.148"/>
		</defs>
		<clipPath id="SVGID_4_">
			<use xlink:href="#SVGID_3_"  overflow="visible"/>
		</clipPath>
		<path clip-path="url(#SVGID_4_)" fill="#E0F9FA" d="M344.867,222.984c0,93.226-75.574,168.8-168.799,168.8
			c-93.225,0-168.8-75.574-168.8-168.8c0-93.226,75.575-168.8,168.8-168.8C269.293,54.184,344.867,129.758,344.867,222.984"/>
	</g>
	<g clip-path="url(#SVGID_2_)">
		<defs>
			<path id="SVGID_5_" d="M7.268,222.984c0,93.226,75.574,168.8,168.8,168.8c93.225,0,168.799-75.574,168.799-168.8
				c0-93.227-75.574-168.799-168.799-168.799C82.842,54.185,7.268,129.758,7.268,222.984"/>
		</defs>
		<clipPath id="SVGID_6_">
			<use xlink:href="#SVGID_5_"  overflow="visible"/>
		</clipPath>
		<path clip-path="url(#SVGID_6_)" fill="#D0F4F5" d="M305.684,261.789c0,80.81-65.509,146.317-146.318,146.317
			S13.047,342.599,13.047,261.789c0-80.809,65.509-146.317,146.318-146.317S305.684,180.98,305.684,261.789"/>
		<path clip-path="url(#SVGID_6_)" fill="#EDB162" d="M125.747,225.641c0,0,8.75,36.671,9.708,43.661
			c0.959,6.989,8.577,4.321,8.947,3.578c0.37-0.741,10.235-10.26,10.344-10.587c0.108-0.328,1.032-8.426,1.032-8.426
			s-11.062-11.502-11.165-11.991c-0.103-0.487-16.413-17.671-16.413-17.671L125.747,225.641z"/>
		<path clip-path="url(#SVGID_6_)" fill="#F8C478" d="M172.62,183.72c0,0,5.594,7.729,7.743,15.538c0,0-0.726,5.286-0.217,8.937
			c0.508,3.65,2.584,6.153,3.138,12.057c0.558,5.904-9.546,34.561-9.546,34.561s-15.405,2.01-21.415,0.852
			c0,0-15.403-8.489-24.784-30.048c0,0-4.619,0.243-5.546-0.69c-0.928-0.935-5.06-11.525-4.9-14.206
			c0.158-2.681,0.541-10.443,1.948-13.695c1.409-3.253,2.707-12.075,7.002-15.596c4.296-3.522,7.91-4.291,9.758-5.346
			c1.847-1.054,2.288-4.572,10.833-4.299c8.546,0.274,14.387,1.189,16.62,1.942C165.485,174.479,169.543,178.861,172.62,183.72"/>
		<path clip-path="url(#SVGID_6_)" fill="#9B5A50" d="M131.464,216.563c0,0,2.328-5.242,2.59-10.994c0,0-4.257-0.981-3.884-8.819
			c0.371-7.839,4.085-15.534,7.497-16.806c3.412-1.273,23.346-0.038,35.257,4.21l2.419,3.816c0,0,10.759-4.796,8.09-18.249
			c0,0-0.033,4.525-3.265,7.101c0,0,5.262-13.758-6.572-20.486c0,0,2.33,6.588-1.477,10.574c0,0-2.322-5.395-5.373-6.298
			c0,0-0.923,2.92-2.343,4.18c0,0-29.45-8.179-44.68,10.38c-15.229,18.559-3.199,48.655,4.295,61.436
			c7.494,12.781,8.937,20.29,8.937,20.29l-7.208-31.257c0,0-9.174-5.277-6.871-13.573c2.301-8.296,10.516-2.749,12.142,5.111"/>
		<path clip-path="url(#SVGID_6_)" fill="#C47F2C" d="M122.374,213.807c0,0,4.2,0.812,4.631,5.338l-1.686,1.83
			C125.318,220.975,126.54,216.519,122.374,213.807"/>
		<path clip-path="url(#SVGID_6_)" fill="#9B5A50" d="M160.711,195.213l-1.626,1.573c0,0-6.144-5.826-16.702-1.466l-1.835-4.23
			C140.548,191.091,151.336,185.153,160.711,195.213"/>
		<path clip-path="url(#SVGID_6_)" fill="#9B5A50" d="M168.082,195.534l0.803,2.182c0,0,1.665-2.102,5.271-1.88
			c2.705,0.166,4.242,4.344,4.242,4.344s1.839-1.373,1.799-1.505c-0.04-0.134-0.99-5.13-5.974-5.59
			C170.132,192.706,168.082,195.534,168.082,195.534"/>
		<path clip-path="url(#SVGID_6_)" fill="#58595B" d="M158.41,207.696l-1.227,1.218c0,0-5.541-4.713-10.803,0.456l-1.775-3.442
			C144.605,205.928,151.382,199.104,158.41,207.696"/>
		<path clip-path="url(#SVGID_6_)" fill="#58595B" d="M170.734,209.221l0.735,1.344c0,0,0.802-1.865,2.764-1.74
			c1.962,0.126,3.232,2.203,3.232,2.203l1.863-1.307c0,0-1.41-3.691-5.077-3.53C171.341,206.318,170.734,209.221,170.734,209.221"/>
		<path clip-path="url(#SVGID_6_)" fill="#C47F2C" d="M168.611,209.368c0,0,2.999,4.717,7.526,6.08c0,0,1.448,0.995,0.96,2.906
			c-0.489,1.912-4.789,5.402-5.666,6.621c0,0,3.213-2.341,4.732-3.251c1.518-0.907,5.307-3.777,2.164-7.378
			C178.327,214.347,172.875,213.858,168.611,209.368"/>
		<path clip-path="url(#SVGID_6_)" fill="#FFFFFF" d="M149.056,225.016c0,0-0.935,2.7-0.698,6.171
			c10.201,3.267,20.033,1.693,23.705,0.891c0.158-1.328,0.37-2.496,0.653-3.243C172.716,228.834,151.233,230.161,149.056,225.016"/>
		<path clip-path="url(#SVGID_6_)" fill="#7A012A" d="M172.063,232.077c-1.946,0.426-5.633,1.062-10.178,1.084
			c3.089,1.827,7.27,4.834,8.518,8.274c0.394-0.049,0.781-0.092,1.188-0.149C171.59,241.286,171.594,235.989,172.063,232.077"/>
		<path clip-path="url(#SVGID_6_)" fill="#AA183B" d="M161.885,233.161c-4.03,0.021-8.734-0.438-13.527-1.976
			c0.22,3.228,1.453,7.117,5.404,10.121c0,0,5.983,1.449,16.641,0.129C169.155,237.995,164.974,234.988,161.885,233.161"/>
		<path clip-path="url(#SVGID_6_)" fill="#003849" d="M243.334,82.909c0,0-4.222,0.297-6.222,4.484
			c-2,4.189-12.216,53.615-20.242,73.402c-6.1,15.03-32.814,62.969-37.057,70.288l-68.676,59.21c0,0-6.76,8.956-10.571,19.287
			c-3.81,10.331-18.582,39.144-31.866,59.225c-13.284,20.08-53.075,47.95-68.469,56.949l1.384,6.579l75.552-15.89
			c0,0,26.991-27.616,35.07-45.051c0,0-0.318,23.78-8.541,39.472l118.634-24.951c0,0-17.478-68.35-7.961-125.311
			c0,0,41.233-105.665,55.668-125.543c0,0,3.584-4.742,7.099-7.697c3.514-2.956,13.241-11.502,6.022-30.372
			C275.938,78.12,255.554,78.492,243.334,82.909"/>
		<path clip-path="url(#SVGID_6_)" fill="#0A5966" d="M176.304,234.109l-38.348,85.928c0,0-17.654-9.173-25.176-31.159
			L176.304,234.109z"/>
		<path clip-path="url(#SVGID_6_)" fill="#FFFFFF" d="M118.67,283.799c0,0,4.118,19.932,18.362,31.845l22.177-66.796L118.67,283.799
			z"/>
		<polygon clip-path="url(#SVGID_6_)" fill="#EF4A6B" points="127.674,276.036 130.835,283.492 141.605,274.467 145.551,260.561 		
			"/>
		<path clip-path="url(#SVGID_6_)" fill="#EF4A6B" d="M130.834,283.492l-0.607,25.02c0,0,4.508,5.494,6.45,6.905
			c0.13,0.096,0.355,0.226,0.355,0.226l8.702-26.21l-4.13-14.966L130.834,283.492z"/>
		<path clip-path="url(#SVGID_6_)" fill="#F9C478" d="M259.297,112.793l12.033-39.023c0,0,15.555-1.204,16.392-14.085
			c0.837-12.882-30.576-23.857-30.576-23.857s-14.036-0.003-16.399,16.155c0,0,4.077,8.672,8.193,12.091l-6.463,22.856
			C242.477,86.931,248.317,105.905,259.297,112.793"/>
		<path clip-path="url(#SVGID_6_)" fill="#E6E7E8" d="M255.569,27.288L190.798,6.273c0,0-11.237,7.682-7.098,26.314l75.987,20.363
			l78.897,37.48c0,0,15.705-3.303,13.587-23.911L255.569,27.288z"/>
		<path clip-path="url(#SVGID_6_)" fill="#E2BE0A" d="M179.108,91.137c0,0,3.182,2.277,8.009,1.754
			c4.828-0.524,8.692,7.245,8.692,7.245s-1.569,2.325-2.944,1.71c0,0-1.799-4.097-4.439-4.957
			c-4.353-1.417-6.226,1.544-11.643-4.087L179.108,91.137"/>
		<path clip-path="url(#SVGID_6_)" fill="#E2BE0A" d="M195.196,99.042c0,0-0.068,1.184-2.75,1.971c0,0-0.492,1.347,0.986,3.69
			c1.208,1.916,2.571,1.897,2.571,1.897s2.362-0.167,3.495-2.572C199.499,104.029,198.964,100.056,195.196,99.042"/>
		<path clip-path="url(#SVGID_6_)" fill="#E2BE0A" d="M196.96,112.34c0,0,0.18,1.584,0.02,2.713c1.24,0.1,2.735,0.016,4.268-0.542
			c-0.021-1.217-0.345-3.445-2.019-6.33c0,0,2.29,3.413,3.026,5.896c0.264-0.133,0.526-0.28,0.786-0.447
			c0.305-0.194,0.571-0.395,0.819-0.6c-0.476-0.786-1.421-2.223-2.875-3.885c0,0,2.104,1.87,3.356,3.453
			c0.763-0.753,1.199-1.538,1.428-2.277c-0.297-0.556-0.768-1.14-1.499-1.618c0,0,0.832,0.034,1.688,0.701
			c0.161-1.398-0.299-2.452-0.299-2.452s-3.094-0.318-6.161-2.924c-3.066-2.604-3.748,1.752-3.748,1.752s0.305,5.918-1.848,8.594
			c0,0,0.827,0.345,2.097,0.557C196.372,114.316,196.931,113.251,196.96,112.34"/>
		<polygon clip-path="url(#SVGID_6_)" fill="#03293C" points="131.319,143.852 45.734,141.698 84.653,75.545 192.217,79.14 		"/>
		<path clip-path="url(#SVGID_6_)" fill="#0A5966" d="M88.778,145.079l-6.104-19.631c0,0,1.289-14.039,20.104-23.605
			c18.815-9.567,37.646-5.422,42.891-1.811l8.944,24.284L88.778,145.079z"/>
		<path clip-path="url(#SVGID_6_)" fill="#03293C" d="M128.241,149.311c8.519-3.155,29.841-13.098,26.373-24.995
			c-3.467-11.896-35.176-10.746-46.833,5.27c0,0-6.694-0.258-12.171,2.128c-5.023,2.19-10.064,7.777-5.889,15.48
			C95.165,157.238,114.616,154.358,128.241,149.311"/>
		<path clip-path="url(#SVGID_6_)" fill="#F9C478" d="M251.497,38.827c0,0,0.561-9.979,3.951-15.458c0,0,7.953-4.332,14.201,1.667
			c0,0-2.253,10.89-6.124,17.245S251.497,38.827,251.497,38.827"/>
		<path clip-path="url(#SVGID_6_)" fill="#F9C478" d="M269.031,24.481c0,0,6.892-2.315,12.684,5.22c0,0-0.475,14.616-10.228,21.985
			c0,0-3.373,0.82-8.075-1.515c-4.701-2.335-3.973-4.483-3.973-4.483s0.172-5.687,0.759-6.586c0.586-0.899,5.329-7.326,5.558-7.817
			C265.985,30.793,269.031,24.481,269.031,24.481"/>
		<path clip-path="url(#SVGID_6_)" fill="#F9C478" d="M281.076,30.368c0,0,6.443-0.447,10.463,6.021c0,0,0.495,13.415-12.771,20.415
			c0,0-6.271,0.21-9.073-5.738c-2.803-5.948-0.303-12.501,0.06-12.887C270.116,37.792,281.076,30.368,281.076,30.368"/>
		<path clip-path="url(#SVGID_6_)" fill="#F9C478" d="M290.782,38.054c0,0,4.726,0.345,6.918,5.497c0,0-0.509,11.631-12.048,17.529
			c0,0-5.41-0.782-7.893-5.21c-2.482-4.426,0.939-6.772,1.39-7.088c0.451-0.317,6.574-5.666,6.935-6.039
			C286.444,42.373,290.782,38.054,290.782,38.054"/>
		<path clip-path="url(#SVGID_6_)" fill="#F9C478" d="M245.216,41.51c0,0,4.504-5.872,11.419-5.655
			c6.914,0.216,13.759,10.633,13.759,10.633s-1.739,7.013-9.568,8.771c0,0-7.353-3.218-11.089-11.297L245.216,41.51z"/>
		<path clip-path="url(#SVGID_6_)" fill="#F9C478" d="M259.224,52.382c0,0-9.906,0.31-13.321-0.818
			c-3.414-1.129-4.721-1.87-4.721-1.87s1.036-5.112,4.868-9.021c3.832-3.908,9.526,4.202,9.769,4.299
			C256.061,45.069,259.224,52.382,259.224,52.382"/>
		<path clip-path="url(#SVGID_6_)" d="M242.266,85.202c0,0,13.134,32.134,28.253,29.664c14.141-2.31,3.079-21.185,3.079-21.185
			s12.571,18.854,1.491,24.656C260.207,126.131,243.305,98.575,242.266,85.202"/>
	</g>
	<g clip-path="url(#SVGID_2_)">
		<defs>
			<path id="SVGID_7_" d="M7.268,222.984c0,93.226,75.574,168.8,168.8,168.8c93.225,0,168.799-75.574,168.799-168.8
				c0-93.227-75.574-168.799-168.799-168.799C82.842,54.185,7.268,129.758,7.268,222.984"/>
		</defs>
		<clipPath id="SVGID_8_">
			<use xlink:href="#SVGID_7_"  overflow="visible"/>
		</clipPath>
		<g clip-path="url(#SVGID_8_)">
			<g>
				<defs>
					<rect id="SVGID_9_" x="146.974" y="80.952" width="41.728" height="37.322"/>
				</defs>
				<clipPath id="SVGID_10_">
					<use xlink:href="#SVGID_9_"  overflow="visible"/>
				</clipPath>
				<path clip-path="url(#SVGID_10_)" fill="#231F20" d="M146.975,100.44l6.572,17.834l35.156-37.322
					C188.702,80.952,166.801,100.376,146.975,100.44"/>
			</g>
		</g>
		<g clip-path="url(#SVGID_8_)">
			<g>
				<defs>
					<rect id="SVGID_11_" x="54.451" y="126.796" width="32.741" height="14.925"/>
				</defs>
				<clipPath id="SVGID_12_">
					<use xlink:href="#SVGID_11_"  overflow="visible"/>
				</clipPath>
				<path clip-path="url(#SVGID_12_)" fill="#231F20" d="M82.147,126.795l5.045,14.926l-32.741-0.648
					C54.451,141.074,71.226,138.021,82.147,126.795"/>
			</g>
		</g>
		<g clip-path="url(#SVGID_8_)">
			<g>
				<defs>
					<rect id="SVGID_13_" x="136.394" y="98.149" width="15.023" height="20.317"/>
				</defs>
				<clipPath id="SVGID_14_">
					<use xlink:href="#SVGID_13_"  overflow="visible"/>
				</clipPath>
				<path clip-path="url(#SVGID_14_)" fill="#FFFFFF" d="M145.103,100.962c0.143,0.096,6.314,17.503,6.314,17.503
					s-3.832-2.99-9.932-3.377l-5.091-16.939C136.394,98.149,141.69,98.646,145.103,100.962"/>
			</g>
		</g>
		<g clip-path="url(#SVGID_8_)">
			<g>
				<defs>
					<rect id="SVGID_15_" x="132.266" y="97.397" width="7.505" height="17.78"/>
				</defs>
				<clipPath id="SVGID_16_">
					<use xlink:href="#SVGID_15_"  overflow="visible"/>
				</clipPath>
				<polygon clip-path="url(#SVGID_16_)" fill="#FFFFFF" points="139.771,115.019 134.608,97.871 132.267,97.397 137.583,115.176 
									"/>
			</g>
		</g>
		<g clip-path="url(#SVGID_8_)">
			<g>
				<defs>
					<rect id="SVGID_17_" x="83.151" y="115.278" width="10.656" height="24.972"/>
				</defs>
				<clipPath id="SVGID_18_">
					<use xlink:href="#SVGID_17_"  overflow="visible"/>
				</clipPath>
				<path clip-path="url(#SVGID_18_)" fill="#231F20" d="M87.724,140.25l-4.573-14.758c0,0,1.152-6.187,4.537-10.214l6.119,16.846
					C93.807,132.124,88.895,134.344,87.724,140.25"/>
			</g>
		</g>
		<g clip-path="url(#SVGID_8_)">
			<g>
				<defs>
					<rect id="SVGID_19_" x="89.161" y="117.307" width="65.129" height="35.976"/>
				</defs>
				<clipPath id="SVGID_20_">
					<use xlink:href="#SVGID_19_"  overflow="visible"/>
				</clipPath>
				<path clip-path="url(#SVGID_20_)" fill="#231F20" d="M118.483,151.44c0,0-11.314,1.826-12.545-5.114
					c-2.02-11.393,33.652-33.26,48.352-20.536c0,0-2.027-9.308-18.778-8.424c-10.592,0.559-23.264,6.751-27.188,13.562
					c0,0-14.351-1.056-17.886,6.19C84.98,148.301,97.527,157.293,118.483,151.44"/>
			</g>
		</g>
		<g clip-path="url(#SVGID_8_)">
			<g>
				<defs>
					<rect id="SVGID_21_" x="260.798" y="91.622" width="14.214" height="22.614"/>
				</defs>
				<clipPath id="SVGID_22_">
					<use xlink:href="#SVGID_21_"  overflow="visible"/>
				</clipPath>
				<path clip-path="url(#SVGID_22_)" fill="#231F20" d="M266.886,91.622l-6.088,19.526c0,0,7.528,5.244,11.959,2.066
					C277.187,110.035,275.02,95.525,266.886,91.622"/>
			</g>
		</g>
		<g clip-path="url(#SVGID_8_)">
			<g>
				<defs>
					<rect id="SVGID_23_" x="128.449" y="271.008" width="7.93" height="11.529"/>
				</defs>
				<clipPath id="SVGID_24_">
					<use xlink:href="#SVGID_23_"  overflow="visible"/>
				</clipPath>
				<path clip-path="url(#SVGID_24_)" fill="#231F20" d="M128.449,276.015l2.702,6.521l5.228-4.644c0,0-3.961-0.57-2.039-6.885
					L128.449,276.015z"/>
			</g>
		</g>
		<g clip-path="url(#SVGID_8_)">
			<g>
				<defs>
					<rect id="SVGID_25_" x="130.777" y="279.7" width="8.921" height="34.244"/>
				</defs>
				<clipPath id="SVGID_26_">
					<use xlink:href="#SVGID_25_"  overflow="visible"/>
				</clipPath>
				<path clip-path="url(#SVGID_26_)" fill="#231F20" d="M137.055,279.701l-5.591,4.323l-0.686,23.781l5.944,6.139
					c0,0,2.312-6.914,2.977-8.68C139.699,305.265,132.942,296.328,137.055,279.701"/>
			</g>
		</g>
		<g clip-path="url(#SVGID_8_)">
			<g>
				<defs>
					<rect id="SVGID_27_" x="42.349" y="334.378" width="70.519" height="87.911"/>
				</defs>
				<clipPath id="SVGID_28_">
					<use xlink:href="#SVGID_27_"  overflow="visible"/>
				</clipPath>
				<path clip-path="url(#SVGID_28_)" fill="#231F20" d="M112.414,367.663c0,0,1.301-23.322-0.5-33.284
					c0,0-18.776,62.454-69.565,87.911l32.824-6.904C75.173,415.386,102.476,389.256,112.414,367.663"/>
			</g>
		</g>
		<g clip-path="url(#SVGID_8_)">
			<g>
				<defs>
					<rect id="SVGID_29_" x="187.012" y="124.957" width="90.67" height="261.06"/>
				</defs>
				<clipPath id="SVGID_30_">
					<use xlink:href="#SVGID_29_"  overflow="visible"/>
				</clipPath>
				<path clip-path="url(#SVGID_30_)" fill="#231F20" d="M277.683,124.957c0,0-14.733,7.31-24.706,0.985c0,0,3.941,7.15,7.693,8.133
					c3.753,0.984-16.289,41.618-21.738,52.589c-5.449,10.971-22.056,56.348-36.436,75.439
					c-14.378,19.091-15.483,22.921-15.483,22.921s9.103-3.738,11.727,3.466c2.623,7.204,9.843,76.309,16.079,97.527l5.306-1.117
					c0,0-14.838-49.475-11.152-106.762c0,0,0.453-11.545,2.535-17.45l31.673-75.953
					C253.382,162.645,266.511,130.409,277.683,124.957"/>
			</g>
		</g>
		<g clip-path="url(#SVGID_8_)">
			<g>
				<defs>
					<rect id="SVGID_31_" x="251.173" y="43.375" width="17.526" height="10.633"/>
				</defs>
				<clipPath id="SVGID_32_">
					<use xlink:href="#SVGID_31_"  overflow="visible"/>
				</clipPath>
				<path clip-path="url(#SVGID_32_)" fill="#231F20" d="M268.698,48.062c0,0-2.879,4.596-8.246,5.946c0,0-7.13-3.282-9.279-10.633
					C251.173,43.375,260.843,52.485,268.698,48.062"/>
			</g>
		</g>
		<g clip-path="url(#SVGID_8_)">
			<g>
				<defs>
					<rect id="SVGID_33_" x="252.444" y="28.348" width="15.021" height="9.593"/>
				</defs>
				<clipPath id="SVGID_34_">
					<use xlink:href="#SVGID_33_"  overflow="visible"/>
				</clipPath>
				<path clip-path="url(#SVGID_34_)" fill="#231F20" d="M254.169,28.347c0,0-1.25,4.861-1.725,7.344c0,0,2.746-0.9,5.87-0.536
					c3.124,0.362,6.349,2.786,6.349,2.786s2.402-5.154,2.802-6.96C267.465,30.981,260.366,34.634,254.169,28.347"/>
			</g>
		</g>
		<g clip-path="url(#SVGID_8_)">
			<g>
				<defs>
					<rect id="SVGID_35_" x="263.109" y="55.665" width="21.979" height="15.511"/>
				</defs>
				<clipPath id="SVGID_36_">
					<use xlink:href="#SVGID_35_"  overflow="visible"/>
				</clipPath>
				<path clip-path="url(#SVGID_36_)" fill="#231F20" d="M263.109,55.665l21.979,10.188c0,0-3.437,4.124-8.799,5.323
					C276.289,71.176,275.71,62.803,263.109,55.665"/>
			</g>
		</g>
		<g clip-path="url(#SVGID_8_)">
			<g>
				<defs>
					<rect id="SVGID_37_" x="272.072" y="60.262" width="11.615" height="8.61"/>
				</defs>
				<clipPath id="SVGID_38_">
					<use xlink:href="#SVGID_37_"  overflow="visible"/>
				</clipPath>
				<path clip-path="url(#SVGID_38_)" fill="#231F20" d="M283.688,65.964l-11.615-5.701c0,0,7.902,5.414,8.061,8.609
					C280.133,68.872,282.685,67.781,283.688,65.964"/>
			</g>
		</g>
		<g clip-path="url(#SVGID_8_)">
			<g>
				<defs>
					<rect id="SVGID_39_" x="265.584" y="36.068" width="12.901" height="15.141"/>
				</defs>
				<clipPath id="SVGID_40_">
					<use xlink:href="#SVGID_39_"  overflow="visible"/>
				</clipPath>
				<path clip-path="url(#SVGID_40_)" fill="#231F20" d="M266.983,36.068c0,0-0.413,2.248-1.399,3.619c0,0,4.564,4.746,5.371,6.128
					c0.807,1.382-2.299,4.925-2.675,5.383c0,0,2.414,0,3.106,0.011c0,0,4.554-3.567,7.099-9.981
					C278.485,41.228,270.662,43.549,266.983,36.068"/>
			</g>
		</g>
		<g clip-path="url(#SVGID_8_)">
			<g>
				<defs>
					<rect id="SVGID_41_" x="270.734" y="45.299" width="12.563" height="10.998"/>
				</defs>
				<clipPath id="SVGID_42_">
					<use xlink:href="#SVGID_41_"  overflow="visible"/>
				</clipPath>
				<path clip-path="url(#SVGID_42_)" fill="#231F20" d="M277.975,45.299c0,0-3.165,4.802-6.109,6.604l-1.132,0.237
					c0,0,2.999,4.245,7.818,4.155c0,0,2.585-1.06,4.746-3.251C283.298,53.044,277.704,53.149,277.975,45.299"/>
			</g>
		</g>
		<g clip-path="url(#SVGID_8_)">
			<g>
				<defs>
					<rect id="SVGID_43_" x="279.125" y="50.956" width="11.471" height="9.58"/>
				</defs>
				<clipPath id="SVGID_44_">
					<use xlink:href="#SVGID_43_"  overflow="visible"/>
				</clipPath>
				<path clip-path="url(#SVGID_44_)" fill="#231F20" d="M286.553,50.956c0,0-3.516,4.359-7.428,5.958c0,0,2.08,3.219,6.486,3.622
					c0,0,3.54-1.963,4.985-3.523C290.597,57.013,286.509,55.841,286.553,50.956"/>
			</g>
		</g>
		<g clip-path="url(#SVGID_8_)">
			<g>
				<defs>
					<rect id="SVGID_45_" x="256.492" y="71.967" width="14.072" height="37.978"/>
				</defs>
				<clipPath id="SVGID_46_">
					<use xlink:href="#SVGID_45_"  overflow="visible"/>
				</clipPath>
				<polygon clip-path="url(#SVGID_46_)" fill="#231F20" points="259.142,109.945 270.564,73.636 267.259,71.967 268.1,73.859 
					256.492,107.178 				"/>
			</g>
		</g>
		<g clip-path="url(#SVGID_8_)">
			<g>
				<defs>
					<rect id="SVGID_47_" x="241.654" y="51.941" width="8.494" height="11.497"/>
				</defs>
				<clipPath id="SVGID_48_">
					<use xlink:href="#SVGID_47_"  overflow="visible"/>
				</clipPath>
				<path clip-path="url(#SVGID_48_)" fill="#231F20" d="M241.654,51.941c0,0,3.998,8.614,7.854,11.497l0.641-1.169
					C250.148,62.269,242.727,54.08,241.654,51.941"/>
			</g>
		</g>
		<g opacity="0.5" clip-path="url(#SVGID_8_)">
			<g>
				<defs>
					<rect id="SVGID_49_" x="250.122" y="36.421" width="19.697" height="11.038"/>
				</defs>
				<clipPath id="SVGID_50_">
					<use xlink:href="#SVGID_49_"  overflow="visible"/>
				</clipPath>
				<path clip-path="url(#SVGID_50_)" fill="#FFFFFF" d="M269.818,46.386c0,0-5.29-8.822-13.028-9.966c0,0-3.69,0.075-6.668,1.957
					c0,0,4.947-0.702,7.46,0.056c5.916,1.785,11.354,9.025,11.354,9.025"/>
			</g>
		</g>
		<g clip-path="url(#SVGID_8_)">
			<g>
				<defs>
					<rect id="SVGID_51_" x="228.051" y="84.401" width="25.618" height="46.783"/>
				</defs>
				<clipPath id="SVGID_52_">
					<use xlink:href="#SVGID_51_"  overflow="visible"/>
				</clipPath>
				<path clip-path="url(#SVGID_52_)" fill="#FFFFFF" d="M241.912,84.401c0,0-2.007,1.446-1.731,5.007
					c0.275,3.56,5.557,21.352,13.488,27.104c0,0-11.762-5.713-15.461-24.085l-10.157,38.757l9.569-42.38
					C237.62,88.804,238.137,84.916,241.912,84.401"/>
			</g>
		</g>
		<g clip-path="url(#SVGID_8_)">
			<g>
				<defs>
					<rect id="SVGID_53_" x="265.296" y="52.024" width="84.406" height="37.129"/>
				</defs>
				<clipPath id="SVGID_54_">
					<use xlink:href="#SVGID_53_"  overflow="visible"/>
				</clipPath>
				<path clip-path="url(#SVGID_54_)" fill="#231F20" d="M265.297,54.388l73.389,34.765c0,0,7.103-1.904,11.017-8.888
					c0,0-22.63-4.183-58.607-20.883c0,0-4.638,2.619-5.893,2.717c0,0-4.69-0.879-7.167-4.661c0,0-4.973,0.197-8.381-4.83
					l-2.141-0.584C267.514,52.024,266.308,54.19,265.297,54.388"/>
			</g>
		</g>
		<g clip-path="url(#SVGID_8_)">
			<g>
				<defs>
					<rect id="SVGID_55_" x="184.082" y="17.96" width="61.416" height="28.454"/>
				</defs>
				<clipPath id="SVGID_56_">
					<use xlink:href="#SVGID_55_"  overflow="visible"/>
				</clipPath>
				<path clip-path="url(#SVGID_56_)" fill="#231F20" d="M245.498,40.157c0,0-3.221,2.777-4.372,6.257l-55.884-14.928
					c0,0-2.635-6.205,0.036-13.525C185.278,17.961,233.308,36.477,245.498,40.157"/>
			</g>
		</g>
		<g clip-path="url(#SVGID_8_)">
			<g>
				<defs>
					<rect id="SVGID_57_" x="178.569" y="92.952" width="15.251" height="7.613"/>
				</defs>
				<clipPath id="SVGID_58_">
					<use xlink:href="#SVGID_57_"  overflow="visible"/>
				</clipPath>
				<path clip-path="url(#SVGID_58_)" fill="#231F20" d="M179.765,92.952l-1.196,1.133c0,0,2.245,1.974,4.8,1.916
					c2.557-0.06,6.396-0.922,9.18,4.564c0,0,0.972-0.342,1.272-0.911c0,0-2.595-4.569-5.484-4.968
					C185.447,94.287,181.568,95.085,179.765,92.952"/>
			</g>
		</g>
		<g clip-path="url(#SVGID_8_)">
			<g>
				<defs>
					<rect id="SVGID_59_" x="192.799" y="100.569" width="4.883" height="5.877"/>
				</defs>
				<clipPath id="SVGID_60_">
					<use xlink:href="#SVGID_59_"  overflow="visible"/>
				</clipPath>
				<path clip-path="url(#SVGID_60_)" fill="#231F20" d="M192.812,101.351c0,0-0.365,3.014,2.955,5.095c0,0,1.089-0.055,1.916-0.715
					c0,0-2.629-1.584-3.128-5.162C194.555,100.569,193.477,101.208,192.812,101.351"/>
			</g>
		</g>
		<g clip-path="url(#SVGID_8_)">
			<g>
				<defs>
					<rect id="SVGID_61_" x="194.238" y="106.023" width="9.205" height="8.737"/>
				</defs>
				<clipPath id="SVGID_62_">
					<use xlink:href="#SVGID_61_"  overflow="visible"/>
				</clipPath>
				<path clip-path="url(#SVGID_62_)" fill="#231F20" d="M198.066,106.023c0,0-0.678,0.694-2.034,0.895c0,0,0.335,4.424-1.794,7.317
					c0,0,1.074,0.431,1.61,0.479c0,0,1.065-1.863,1.017-3.329c0,0,0.68,1.648,0.471,3.265c0,0,1.543,0.255,2.11-0.011
					c0,0,0.03-4.059-1.717-7.307c0,0,2.033,3.657,2.427,6.17c0,0,0.538-1.659-1.979-6.291l1.022,1.569l-1.021-2.403
					c0,0,3.062,3.808,4.162,7.254c0,0,0.996-0.479,1.102-0.655C203.442,112.976,201.075,109.236,198.066,106.023"/>
			</g>
		</g>
		<g clip-path="url(#SVGID_8_)">
			<g>
				<defs>
					<rect id="SVGID_63_" x="134.097" y="162.817" width="49.061" height="24.444"/>
				</defs>
				<clipPath id="SVGID_64_">
					<use xlink:href="#SVGID_63_"  overflow="visible"/>
				</clipPath>
				<path clip-path="url(#SVGID_64_)" fill="#231F20" d="M175.454,187.261c0,0,7.747-4.612,7.704-11.842c0,0-3.602,4.303-9.141,6.06
					c0,0,10.502-5.904,4.907-18.466c0,0-1.157,9.255-6.143,12.594c0,0,0.268-8.921-4.166-12.79c0,0,0.344,9.014-8.823,13.897
					c0,0-4.486,1.387-12.354,1.269c-7.867-0.119-8.76-0.153-10.845,1.173c-2.086,1.324-2.495,2.888-2.495,2.888
					s1.538-2.171,4.594-2.74c3.057-0.568,22.576-0.14,34.534,4.387C173.226,183.691,175.276,186.413,175.454,187.261"/>
			</g>
		</g>
		<g clip-path="url(#SVGID_8_)">
			<g>
				<defs>
					<rect id="SVGID_65_" x="114.109" y="198.015" width="18.931" height="49.404"/>
				</defs>
				<clipPath id="SVGID_66_">
					<use xlink:href="#SVGID_65_"  overflow="visible"/>
				</clipPath>
				<path clip-path="url(#SVGID_66_)" fill="#231F20" d="M114.109,205.372c0,0,0.553,12.377,7.331,24.58
					c6.777,12.204,8.887,17.467,8.887,17.467l-5.322-21.105c0,0-5.382-2.8-6.772-9.593c-1.664-8.136,4.883-11.28,7.975-8.699
					c3.091,2.582,5.083,6.337,5.083,6.337s2.161-6.049,1.679-7.884c0,0-3.471-3.267-3.787-8.46
					C129.183,198.015,121.721,204.686,114.109,205.372"/>
			</g>
		</g>
		<g clip-path="url(#SVGID_8_)">
			<g>
				<defs>
					<rect id="SVGID_67_" x="128.648" y="230.431" width="21.891" height="28.293"/>
				</defs>
				<clipPath id="SVGID_68_">
					<use xlink:href="#SVGID_67_"  overflow="visible"/>
				</clipPath>
				<path clip-path="url(#SVGID_68_)" fill="#231F20" d="M128.648,230.431c0,0,11.225,19.469,21.891,24.871l-4.156,3.423
					C146.383,258.725,133.104,245.387,128.648,230.431"/>
			</g>
		</g>
		<g clip-path="url(#SVGID_8_)">
			<g>
				<defs>
					<rect id="SVGID_69_" x="167.724" y="219.411" width="8.344" height="5.643"/>
				</defs>
				<clipPath id="SVGID_70_">
					<use xlink:href="#SVGID_69_"  overflow="visible"/>
				</clipPath>
				<path clip-path="url(#SVGID_70_)" fill="#231F20" d="M176.068,219.683c0,0-4.234,4.281-4.932,5.354c0,0-2.017,0.243-3.413-1.126
					l6.478-4.5L176.068,219.683z"/>
			</g>
		</g>
		<g clip-path="url(#SVGID_8_)">
			<g>
				<defs>
					<rect id="SVGID_71_" x="169.633" y="183.804" width="12.342" height="47.476"/>
				</defs>
				<clipPath id="SVGID_72_">
					<use xlink:href="#SVGID_71_"  overflow="visible"/>
				</clipPath>
				<path clip-path="url(#SVGID_72_)" fill="#FFFFFF" d="M172.489,184.754c0,0,6.086,10.317,7.095,13.356
					c0,0-0.924,5.091-0.25,9.001c0.675,3.911,1.829,7.288,2.416,9.379c0.587,2.094-0.135,9.088-0.349,10.639
					s-2.525,4.149-2.525,4.149s2.813-12.262,1.903-14.656c-0.909-2.395-3.276-6.624-3.372-10.594
					c-0.097-3.968,0.604-7.662,0.604-7.662l-8.377-14.563L172.489,184.754z"/>
			</g>
		</g>
	</g>
	<g clip-path="url(#SVGID_2_)">
		<defs>
			<rect id="SVGID_73_" x="42.116" y="-25.815" width="317.116" height="360.194"/>
		</defs>
		<clipPath id="SVGID_74_">
			<use xlink:href="#SVGID_73_"  overflow="visible"/>
		</clipPath>
		<path clip-path="url(#SVGID_74_)" fill="#EDB162" d="M125.514,225.641c0,0,8.75,36.671,9.708,43.661
			c0.959,6.989,8.577,4.321,8.947,3.578c0.371-0.741,10.235-10.26,10.344-10.587c0.108-0.328,1.032-8.426,1.032-8.426
			s-11.062-11.502-11.164-11.991c-0.104-0.487-16.414-17.671-16.414-17.671L125.514,225.641z"/>
		<path clip-path="url(#SVGID_74_)" fill="#F8C478" d="M172.388,183.72c0,0,5.594,7.729,7.743,15.538c0,0-0.726,5.286-0.217,8.937
			c0.508,3.65,2.584,6.153,3.138,12.057c0.558,5.904-9.546,34.561-9.546,34.561s-15.405,2.01-21.415,0.852
			c0,0-15.403-8.489-24.784-30.048c0,0-4.618,0.243-5.546-0.69c-0.928-0.935-5.06-11.525-4.9-14.206
			c0.158-2.681,0.541-10.443,1.948-13.695c1.409-3.253,2.707-12.075,7.002-15.596c4.296-3.522,7.91-4.291,9.758-5.346
			c1.847-1.054,2.288-4.572,10.833-4.299c8.546,0.274,14.387,1.189,16.62,1.942C165.253,174.479,169.311,178.861,172.388,183.72"/>
		<path clip-path="url(#SVGID_74_)" fill="#147893" d="M131.231,216.563c0,0,2.328-5.242,2.59-10.994c0,0-4.257-0.981-3.884-8.819
			c0.371-7.839,4.086-15.534,7.497-16.806c3.412-1.273,23.346-0.038,35.257,4.21l2.419,3.816c0,0,10.759-4.796,8.09-18.249
			c0,0-0.033,4.525-3.265,7.101c0,0,5.262-13.758-6.572-20.486c0,0,2.33,6.588-1.477,10.574c0,0-2.322-5.395-5.373-6.298
			c0,0-0.923,2.92-2.343,4.18c0,0-29.45-8.179-44.68,10.38c-15.229,18.559-3.199,48.655,4.295,61.436
			c7.494,12.781,8.937,20.29,8.937,20.29l-7.208-31.257c0,0-9.174-5.277-6.871-13.573c2.301-8.296,10.516-2.749,12.142,5.111"/>
		<path clip-path="url(#SVGID_74_)" fill="#C47F2C" d="M122.142,213.807c0,0,4.2,0.812,4.63,5.338l-1.685,1.83
			C125.086,220.975,126.308,216.519,122.142,213.807"/>
		<path clip-path="url(#SVGID_74_)" fill="#9B5A50" d="M160.479,195.213l-1.626,1.573c0,0-6.144-5.826-16.702-1.466l-1.835-4.23
			C140.315,191.091,151.104,185.153,160.479,195.213"/>
		<path clip-path="url(#SVGID_74_)" fill="#9B5A50" d="M167.851,195.534l0.802,2.182c0,0,1.665-2.102,5.271-1.88
			c2.705,0.166,4.243,4.344,4.243,4.344s1.838-1.373,1.798-1.505c-0.04-0.134-0.99-5.13-5.974-5.59
			C169.899,192.706,167.851,195.534,167.851,195.534"/>
		<path clip-path="url(#SVGID_74_)" fill="#58595B" d="M158.178,207.696l-1.227,1.218c0,0-5.541-4.713-10.803,0.456l-1.775-3.442
			C144.373,205.928,151.15,199.104,158.178,207.696"/>
		<path clip-path="url(#SVGID_74_)" fill="#58595B" d="M170.502,209.221l0.735,1.344c0,0,0.802-1.865,2.764-1.74
			c1.962,0.126,3.232,2.203,3.232,2.203l1.863-1.307c0,0-1.41-3.691-5.077-3.53C171.109,206.318,170.502,209.221,170.502,209.221"/>
		<path clip-path="url(#SVGID_74_)" fill="#C47F2C" d="M168.38,209.368c0,0,2.999,4.717,7.525,6.08c0,0,1.448,0.995,0.96,2.906
			c-0.489,1.912-4.789,5.402-5.666,6.621c0,0,3.213-2.341,4.732-3.251c1.518-0.907,5.306-3.777,2.164-7.378
			C178.095,214.347,172.643,213.858,168.38,209.368"/>
		<path clip-path="url(#SVGID_74_)" fill="#FFFFFF" d="M148.823,225.016c0,0-0.935,2.7-0.698,6.171
			c10.201,3.267,20.033,1.693,23.705,0.891c0.158-1.328,0.37-2.496,0.653-3.243C172.483,228.834,151.001,230.161,148.823,225.016"/>
		<path clip-path="url(#SVGID_74_)" fill="#7A012A" d="M171.83,232.077c-1.946,0.426-5.633,1.062-10.178,1.084
			c3.089,1.827,7.27,4.834,8.518,8.274c0.394-0.049,0.781-0.092,1.188-0.149C171.358,241.286,171.362,235.989,171.83,232.077"/>
		<path clip-path="url(#SVGID_74_)" fill="#AA183B" d="M161.652,233.161c-4.03,0.021-8.734-0.438-13.527-1.976
			c0.22,3.228,1.453,7.117,5.404,10.121c0,0,5.983,1.449,16.641,0.129C168.922,237.995,164.741,234.988,161.652,233.161"/>
		<path clip-path="url(#SVGID_74_)" fill="#003849" d="M243.102,82.909c0,0-4.222,0.297-6.222,4.484
			c-2,4.189-12.216,53.615-20.242,73.402c-6.1,15.03-32.814,62.969-37.057,70.288l-68.676,59.21c0,0-6.76,8.956-10.571,19.287
			c-3.81,10.331-18.582,39.144-31.866,59.225C55.185,388.885,15.394,416.755,0,425.754l1.384,6.579l75.552-15.89
			c0,0,26.991-27.616,35.07-45.051c0,0-0.318,23.78-8.541,39.472l118.634-24.951c0,0-17.478-68.35-7.961-125.311
			c0,0,41.233-105.665,55.668-125.543c0,0,3.584-4.742,7.099-7.697c3.515-2.956,13.241-11.502,6.022-30.372
			C275.706,78.12,255.321,78.492,243.102,82.909"/>
		<path clip-path="url(#SVGID_74_)" fill="#0A5966" d="M176.072,234.109l-38.349,85.928c0,0-17.654-9.173-25.176-31.159
			L176.072,234.109z"/>
		<path clip-path="url(#SVGID_74_)" fill="#FFFFFF" d="M118.438,283.799c0,0,4.118,19.932,18.362,31.845l22.177-66.796
			L118.438,283.799z"/>
		<polygon clip-path="url(#SVGID_74_)" fill="#EF4A6B" points="127.441,276.036 130.603,283.492 141.373,274.467 145.318,260.561 		
			"/>
		<path clip-path="url(#SVGID_74_)" fill="#EF4A6B" d="M130.602,283.492l-0.607,25.02c0,0,4.508,5.494,6.45,6.905
			c0.13,0.096,0.355,0.226,0.355,0.226l8.702-26.21l-4.129-14.966L130.602,283.492z"/>
		<path clip-path="url(#SVGID_74_)" fill="#F9C478" d="M259.064,112.793l12.033-39.023c0,0,15.556-1.204,16.392-14.085
			c0.837-12.882-30.576-23.857-30.576-23.857s-14.036-0.003-16.399,16.155c0,0,4.077,8.672,8.193,12.091l-6.463,22.856
			C242.244,86.931,248.085,105.905,259.064,112.793"/>
		<path clip-path="url(#SVGID_74_)" fill="#E6E7E8" d="M255.337,27.288L190.565,6.273c0,0-11.237,7.682-7.098,26.314l75.987,20.363
			l78.897,37.48c0,0,15.705-3.303,13.587-23.911L255.337,27.288z"/>
		<path clip-path="url(#SVGID_74_)" fill="#E2BE0A" d="M178.876,91.137c0,0,3.183,2.277,8.009,1.754
			c4.828-0.524,8.692,7.245,8.692,7.245s-1.569,2.325-2.944,1.71c0,0-1.798-4.097-4.439-4.957
			c-4.353-1.417-6.226,1.544-11.643-4.087L178.876,91.137"/>
		<path clip-path="url(#SVGID_74_)" fill="#E2BE0A" d="M194.964,99.042c0,0-0.068,1.184-2.75,1.971c0,0-0.492,1.347,0.986,3.69
			c1.208,1.916,2.571,1.897,2.571,1.897s2.362-0.167,3.495-2.572C199.267,104.029,198.731,100.056,194.964,99.042"/>
		<path clip-path="url(#SVGID_74_)" fill="#E2BE0A" d="M196.728,112.34c0,0,0.18,1.584,0.02,2.713c1.24,0.1,2.735,0.016,4.268-0.542
			c-0.021-1.217-0.344-3.445-2.019-6.33c0,0,2.29,3.413,3.026,5.896c0.264-0.133,0.526-0.28,0.786-0.447
			c0.305-0.194,0.571-0.395,0.819-0.6c-0.476-0.786-1.421-2.223-2.875-3.885c0,0,2.104,1.87,3.356,3.453
			c0.763-0.753,1.199-1.538,1.428-2.277c-0.297-0.556-0.768-1.14-1.499-1.618c0,0,0.832,0.034,1.688,0.701
			c0.161-1.398-0.299-2.452-0.299-2.452s-3.093-0.318-6.161-2.924c-3.066-2.604-3.748,1.752-3.748,1.752s0.305,5.918-1.848,8.594
			c0,0,0.827,0.345,2.097,0.557C196.14,114.316,196.698,113.251,196.728,112.34"/>
		<polygon clip-path="url(#SVGID_74_)" fill="#03293C" points="131.086,143.852 45.501,141.698 84.42,75.545 191.984,79.14 		"/>
		<path clip-path="url(#SVGID_74_)" fill="#0A5966" d="M88.545,145.079l-6.104-19.631c0,0,1.289-14.039,20.104-23.605
			c18.815-9.567,37.646-5.422,42.891-1.811l8.944,24.284L88.545,145.079z"/>
		<path clip-path="url(#SVGID_74_)" fill="#03293C" d="M128.008,149.311c8.519-3.155,29.841-13.098,26.373-24.995
			c-3.467-11.896-35.176-10.746-46.833,5.27c0,0-6.694-0.258-12.171,2.128c-5.023,2.19-10.063,7.777-5.889,15.48
			C94.933,157.238,114.383,154.358,128.008,149.311"/>
		<path clip-path="url(#SVGID_74_)" fill="#F9C478" d="M251.265,38.827c0,0,0.561-9.979,3.951-15.458c0,0,7.954-4.332,14.202,1.667
			c0,0-2.253,10.89-6.125,17.245C259.422,48.636,251.265,38.827,251.265,38.827"/>
		<path clip-path="url(#SVGID_74_)" fill="#F9C478" d="M268.799,24.481c0,0,6.892-2.315,12.684,5.22c0,0-0.475,14.616-10.228,21.985
			c0,0-3.373,0.82-8.075-1.515c-4.701-2.335-3.973-4.483-3.973-4.483s0.172-5.687,0.759-6.586c0.586-0.899,5.329-7.326,5.558-7.817
			C265.753,30.793,268.799,24.481,268.799,24.481"/>
		<path clip-path="url(#SVGID_74_)" fill="#F9C478" d="M280.844,30.368c0,0,6.443-0.447,10.463,6.021
			c0,0,0.495,13.415-12.771,20.415c0,0-6.271,0.21-9.073-5.738c-2.803-5.948-0.303-12.501,0.06-12.887
			C269.884,37.792,280.844,30.368,280.844,30.368"/>
		<path clip-path="url(#SVGID_74_)" fill="#F9C478" d="M290.55,38.054c0,0,4.726,0.345,6.918,5.497c0,0-0.509,11.631-12.048,17.529
			c0,0-5.41-0.782-7.893-5.21c-2.482-4.426,0.939-6.772,1.391-7.088c0.45-0.317,6.572-5.666,6.934-6.039
			C286.212,42.373,290.55,38.054,290.55,38.054"/>
		<path clip-path="url(#SVGID_74_)" fill="#F9C478" d="M244.983,41.51c0,0,4.504-5.872,11.419-5.655
			c6.914,0.216,13.759,10.633,13.759,10.633s-1.739,7.013-9.567,8.771c0,0-7.354-3.218-11.09-11.297L244.983,41.51z"/>
		<path clip-path="url(#SVGID_74_)" fill="#F9C478" d="M258.991,52.382c0,0-9.906,0.31-13.321-0.818
			c-3.414-1.129-4.721-1.87-4.721-1.87s1.036-5.112,4.868-9.021c3.832-3.908,9.527,4.202,9.769,4.299
			C255.828,45.069,258.991,52.382,258.991,52.382"/>
		<path clip-path="url(#SVGID_74_)" d="M242.033,85.202c0,0,13.134,32.134,28.253,29.664c14.141-2.31,3.079-21.185,3.079-21.185
			s12.571,18.854,1.491,24.656C259.974,126.131,243.072,98.575,242.033,85.202"/>
		<g clip-path="url(#SVGID_74_)">
			<g>
				<defs>
					<rect id="SVGID_75_" x="146.742" y="80.952" width="41.727" height="37.322"/>
				</defs>
				<clipPath id="SVGID_76_">
					<use xlink:href="#SVGID_75_"  overflow="visible"/>
				</clipPath>
				<path clip-path="url(#SVGID_76_)" fill="#231F20" d="M146.742,100.44l6.572,17.834l35.156-37.322
					C188.47,80.952,166.569,100.376,146.742,100.44"/>
			</g>
		</g>
		<g clip-path="url(#SVGID_74_)">
			<g>
				<defs>
					<rect id="SVGID_77_" x="54.219" y="126.796" width="32.741" height="14.925"/>
				</defs>
				<clipPath id="SVGID_78_">
					<use xlink:href="#SVGID_77_"  overflow="visible"/>
				</clipPath>
				<path clip-path="url(#SVGID_78_)" fill="#231F20" d="M81.915,126.795l5.045,14.926l-32.741-0.648
					C54.219,141.074,70.994,138.021,81.915,126.795"/>
			</g>
		</g>
		<g clip-path="url(#SVGID_74_)">
			<g>
				<defs>
					<rect id="SVGID_79_" x="136.161" y="98.149" width="15.024" height="20.317"/>
				</defs>
				<clipPath id="SVGID_80_">
					<use xlink:href="#SVGID_79_"  overflow="visible"/>
				</clipPath>
				<path clip-path="url(#SVGID_80_)" fill="#FFFFFF" d="M144.87,100.962c0.143,0.096,6.314,17.503,6.314,17.503
					s-3.832-2.99-9.932-3.377l-5.09-16.939C136.162,98.149,141.458,98.646,144.87,100.962"/>
			</g>
		</g>
		<g clip-path="url(#SVGID_74_)">
			<g>
				<defs>
					<rect id="SVGID_81_" x="132.034" y="97.397" width="7.505" height="17.78"/>
				</defs>
				<clipPath id="SVGID_82_">
					<use xlink:href="#SVGID_81_"  overflow="visible"/>
				</clipPath>
				<polygon clip-path="url(#SVGID_82_)" fill="#FFFFFF" points="139.539,115.019 134.376,97.871 132.034,97.397 137.351,115.176 
									"/>
			</g>
		</g>
		<g clip-path="url(#SVGID_74_)">
			<g>
				<defs>
					<rect id="SVGID_83_" x="82.919" y="115.278" width="10.656" height="24.972"/>
				</defs>
				<clipPath id="SVGID_84_">
					<use xlink:href="#SVGID_83_"  overflow="visible"/>
				</clipPath>
				<path clip-path="url(#SVGID_84_)" fill="#231F20" d="M87.492,140.25l-4.572-14.758c0,0,1.151-6.187,4.536-10.214l6.119,16.846
					C93.575,132.124,88.663,134.344,87.492,140.25"/>
			</g>
		</g>
		<g clip-path="url(#SVGID_74_)">
			<g>
				<defs>
					<rect id="SVGID_85_" x="88.929" y="117.307" width="65.128" height="35.976"/>
				</defs>
				<clipPath id="SVGID_86_">
					<use xlink:href="#SVGID_85_"  overflow="visible"/>
				</clipPath>
				<path clip-path="url(#SVGID_86_)" fill="#231F20" d="M118.25,151.44c0,0-11.313,1.826-12.545-5.114
					c-2.02-11.393,33.652-33.26,48.352-20.536c0,0-2.027-9.308-18.778-8.424c-10.592,0.559-23.264,6.751-27.188,13.562
					c0,0-14.351-1.056-17.886,6.19C84.748,148.301,97.294,157.293,118.25,151.44"/>
			</g>
		</g>
		<g clip-path="url(#SVGID_74_)">
			<g>
				<defs>
					<rect id="SVGID_87_" x="260.566" y="91.622" width="14.214" height="22.614"/>
				</defs>
				<clipPath id="SVGID_88_">
					<use xlink:href="#SVGID_87_"  overflow="visible"/>
				</clipPath>
				<path clip-path="url(#SVGID_88_)" fill="#231F20" d="M266.653,91.622l-6.088,19.526c0,0,7.528,5.244,11.959,2.066
					C276.954,110.035,274.787,95.525,266.653,91.622"/>
			</g>
		</g>
		<g clip-path="url(#SVGID_74_)">
			<g>
				<defs>
					<rect id="SVGID_89_" x="128.216" y="271.008" width="7.93" height="11.529"/>
				</defs>
				<clipPath id="SVGID_90_">
					<use xlink:href="#SVGID_89_"  overflow="visible"/>
				</clipPath>
				<path clip-path="url(#SVGID_90_)" fill="#231F20" d="M128.216,276.015l2.702,6.521l5.228-4.644c0,0-3.961-0.57-2.039-6.885
					L128.216,276.015z"/>
			</g>
		</g>
		<g clip-path="url(#SVGID_74_)">
			<g>
				<defs>
					<rect id="SVGID_91_" x="130.545" y="279.7" width="8.921" height="34.244"/>
				</defs>
				<clipPath id="SVGID_92_">
					<use xlink:href="#SVGID_91_"  overflow="visible"/>
				</clipPath>
				<path clip-path="url(#SVGID_92_)" fill="#231F20" d="M136.822,279.701l-5.591,4.323l-0.686,23.781l5.944,6.139
					c0,0,2.313-6.914,2.977-8.68C139.466,305.265,132.71,296.328,136.822,279.701"/>
			</g>
		</g>
		<g clip-path="url(#SVGID_74_)">
			<g>
				<defs>
					<rect id="SVGID_93_" x="42.117" y="334.378" width="70.52" height="87.911"/>
				</defs>
				<clipPath id="SVGID_94_">
					<use xlink:href="#SVGID_93_"  overflow="visible"/>
				</clipPath>
				<path clip-path="url(#SVGID_94_)" fill="#231F20" d="M112.182,367.663c0,0,1.301-23.322-0.5-33.284
					c0,0-18.776,62.454-69.565,87.911l32.824-6.904C74.94,415.386,102.244,389.256,112.182,367.663"/>
			</g>
		</g>
		<g clip-path="url(#SVGID_74_)">
			<g>
				<defs>
					<rect id="SVGID_95_" x="186.78" y="124.957" width="90.67" height="261.06"/>
				</defs>
				<clipPath id="SVGID_96_">
					<use xlink:href="#SVGID_95_"  overflow="visible"/>
				</clipPath>
				<path clip-path="url(#SVGID_96_)" fill="#231F20" d="M277.45,124.957c0,0-14.733,7.31-24.706,0.985c0,0,3.941,7.15,7.693,8.133
					c3.753,0.984-16.289,41.618-21.738,52.589c-5.449,10.971-22.056,56.348-36.436,75.439
					c-14.378,19.091-15.483,22.921-15.483,22.921s9.103-3.738,11.727,3.466c2.623,7.204,9.843,76.309,16.079,97.527l5.305-1.117
					c0,0-14.837-49.475-11.151-106.762c0,0,0.453-11.545,2.535-17.45l31.673-75.953C253.149,162.645,266.279,130.409,277.45,124.957
					"/>
			</g>
		</g>
		<g clip-path="url(#SVGID_74_)">
			<g>
				<defs>
					<rect id="SVGID_97_" x="250.941" y="43.375" width="17.524" height="10.633"/>
				</defs>
				<clipPath id="SVGID_98_">
					<use xlink:href="#SVGID_97_"  overflow="visible"/>
				</clipPath>
				<path clip-path="url(#SVGID_98_)" fill="#231F20" d="M268.467,48.062c0,0-2.88,4.596-8.247,5.946c0,0-7.129-3.282-9.279-10.633
					C250.94,43.375,260.61,52.485,268.467,48.062"/>
			</g>
		</g>
		<g clip-path="url(#SVGID_74_)">
			<g>
				<defs>
					<rect id="SVGID_99_" x="252.212" y="28.348" width="15.021" height="9.593"/>
				</defs>
				<clipPath id="SVGID_100_">
					<use xlink:href="#SVGID_99_"  overflow="visible"/>
				</clipPath>
				<path clip-path="url(#SVGID_100_)" fill="#231F20" d="M253.937,28.347c0,0-1.249,4.861-1.725,7.344c0,0,2.746-0.9,5.87-0.536
					c3.124,0.362,6.349,2.786,6.349,2.786s2.402-5.154,2.802-6.96C267.232,30.981,260.134,34.634,253.937,28.347"/>
			</g>
		</g>
		<g clip-path="url(#SVGID_74_)">
			<g>
				<defs>
					<rect id="SVGID_101_" x="262.877" y="55.665" width="21.979" height="15.511"/>
				</defs>
				<clipPath id="SVGID_102_">
					<use xlink:href="#SVGID_101_"  overflow="visible"/>
				</clipPath>
				<path clip-path="url(#SVGID_102_)" fill="#231F20" d="M262.877,55.665l21.979,10.188c0,0-3.437,4.124-8.799,5.323
					C276.057,71.176,275.478,62.803,262.877,55.665"/>
			</g>
		</g>
		<g clip-path="url(#SVGID_74_)">
			<g>
				<defs>
					<rect id="SVGID_103_" x="271.84" y="60.262" width="11.615" height="8.61"/>
				</defs>
				<clipPath id="SVGID_104_">
					<use xlink:href="#SVGID_103_"  overflow="visible"/>
				</clipPath>
				<path clip-path="url(#SVGID_104_)" fill="#231F20" d="M283.455,65.964l-11.615-5.701c0,0,7.902,5.414,8.061,8.609
					C279.9,68.872,282.452,67.781,283.455,65.964"/>
			</g>
		</g>
		<g clip-path="url(#SVGID_74_)">
			<g>
				<defs>
					<rect id="SVGID_105_" x="265.352" y="36.068" width="12.9" height="15.141"/>
				</defs>
				<clipPath id="SVGID_106_">
					<use xlink:href="#SVGID_105_"  overflow="visible"/>
				</clipPath>
				<path clip-path="url(#SVGID_106_)" fill="#231F20" d="M266.751,36.068c0,0-0.413,2.248-1.399,3.619c0,0,4.565,4.746,5.372,6.128
					c0.806,1.382-2.3,4.925-2.676,5.383c0,0,2.414,0,3.106,0.011c0,0,4.554-3.567,7.099-9.981
					C278.253,41.228,270.431,43.549,266.751,36.068"/>
			</g>
		</g>
		<g clip-path="url(#SVGID_74_)">
			<g>
				<defs>
					<rect id="SVGID_107_" x="270.501" y="45.299" width="12.564" height="10.998"/>
				</defs>
				<clipPath id="SVGID_108_">
					<use xlink:href="#SVGID_107_"  overflow="visible"/>
				</clipPath>
				<path clip-path="url(#SVGID_108_)" fill="#231F20" d="M277.742,45.299c0,0-3.165,4.802-6.109,6.604l-1.132,0.237
					c0,0,2.999,4.245,7.818,4.155c0,0,2.585-1.06,4.746-3.251C283.065,53.044,277.472,53.149,277.742,45.299"/>
			</g>
		</g>
		<g clip-path="url(#SVGID_74_)">
			<g>
				<defs>
					<rect id="SVGID_109_" x="278.893" y="50.956" width="11.472" height="9.58"/>
				</defs>
				<clipPath id="SVGID_110_">
					<use xlink:href="#SVGID_109_"  overflow="visible"/>
				</clipPath>
				<path clip-path="url(#SVGID_110_)" fill="#231F20" d="M286.32,50.956c0,0-3.516,4.359-7.428,5.958c0,0,2.081,3.219,6.486,3.622
					c0,0,3.54-1.963,4.985-3.523C290.364,57.013,286.276,55.841,286.32,50.956"/>
			</g>
		</g>
		<g clip-path="url(#SVGID_74_)">
			<g>
				<defs>
					<rect id="SVGID_111_" x="256.26" y="71.967" width="14.072" height="37.978"/>
				</defs>
				<clipPath id="SVGID_112_">
					<use xlink:href="#SVGID_111_"  overflow="visible"/>
				</clipPath>
				<polygon clip-path="url(#SVGID_112_)" fill="#231F20" points="258.909,109.945 270.332,73.636 267.026,71.967 267.867,73.859 
					256.26,107.178 				"/>
			</g>
		</g>
		<g clip-path="url(#SVGID_74_)">
			<g>
				<defs>
					<rect id="SVGID_113_" x="241.422" y="51.941" width="8.494" height="11.497"/>
				</defs>
				<clipPath id="SVGID_114_">
					<use xlink:href="#SVGID_113_"  overflow="visible"/>
				</clipPath>
				<path clip-path="url(#SVGID_114_)" fill="#231F20" d="M241.422,51.941c0,0,3.998,8.614,7.854,11.497l0.641-1.169
					C249.916,62.269,242.494,54.08,241.422,51.941"/>
			</g>
		</g>
		<g opacity="0.5" clip-path="url(#SVGID_74_)">
			<g>
				<defs>
					<rect id="SVGID_115_" x="249.89" y="36.421" width="19.696" height="11.038"/>
				</defs>
				<clipPath id="SVGID_116_">
					<use xlink:href="#SVGID_115_"  overflow="visible"/>
				</clipPath>
				<path clip-path="url(#SVGID_116_)" fill="#FFFFFF" d="M269.586,46.386c0,0-5.29-8.822-13.028-9.966c0,0-3.69,0.075-6.668,1.957
					c0,0,4.947-0.702,7.46,0.056c5.916,1.785,11.354,9.025,11.354,9.025"/>
			</g>
		</g>
		<g clip-path="url(#SVGID_74_)">
			<g>
				<defs>
					<rect id="SVGID_117_" x="227.819" y="84.401" width="25.616" height="46.783"/>
				</defs>
				<clipPath id="SVGID_118_">
					<use xlink:href="#SVGID_117_"  overflow="visible"/>
				</clipPath>
				<path clip-path="url(#SVGID_118_)" fill="#FFFFFF" d="M241.68,84.401c0,0-2.007,1.446-1.731,5.007
					c0.275,3.56,5.558,21.352,13.488,27.104c0,0-11.762-5.713-15.461-24.085l-10.156,38.757l9.568-42.38
					C237.388,88.804,237.904,84.916,241.68,84.401"/>
			</g>
		</g>
		<g clip-path="url(#SVGID_74_)">
			<g>
				<defs>
					<rect id="SVGID_119_" x="265.064" y="52.024" width="84.405" height="37.129"/>
				</defs>
				<clipPath id="SVGID_120_">
					<use xlink:href="#SVGID_119_"  overflow="visible"/>
				</clipPath>
				<path clip-path="url(#SVGID_120_)" fill="#231F20" d="M265.064,54.388l73.39,34.765c0,0,7.102-1.904,11.016-8.888
					c0,0-22.63-4.183-58.607-20.883c0,0-4.638,2.619-5.893,2.717c0,0-4.69-0.879-7.167-4.661c0,0-4.973,0.197-8.381-4.83
					l-2.141-0.584C267.281,52.024,266.075,54.19,265.064,54.388"/>
			</g>
		</g>
		<g clip-path="url(#SVGID_74_)">
			<g>
				<defs>
					<rect id="SVGID_121_" x="183.849" y="17.96" width="61.417" height="28.454"/>
				</defs>
				<clipPath id="SVGID_122_">
					<use xlink:href="#SVGID_121_"  overflow="visible"/>
				</clipPath>
				<path clip-path="url(#SVGID_122_)" fill="#231F20" d="M245.266,40.157c0,0-3.221,2.777-4.372,6.257L185.01,31.486
					c0,0-2.635-6.205,0.036-13.525C185.046,17.961,233.075,36.477,245.266,40.157"/>
			</g>
		</g>
		<g clip-path="url(#SVGID_74_)">
			<g>
				<defs>
					<rect id="SVGID_123_" x="178.336" y="92.952" width="15.252" height="7.613"/>
				</defs>
				<clipPath id="SVGID_124_">
					<use xlink:href="#SVGID_123_"  overflow="visible"/>
				</clipPath>
				<path clip-path="url(#SVGID_124_)" fill="#231F20" d="M179.532,92.952l-1.196,1.133c0,0,2.245,1.974,4.8,1.916
					c2.557-0.06,6.396-0.922,9.18,4.564c0,0,0.972-0.342,1.272-0.911c0,0-2.595-4.569-5.484-4.968
					C185.215,94.287,181.336,95.085,179.532,92.952"/>
			</g>
		</g>
		<g clip-path="url(#SVGID_74_)">
			<g>
				<defs>
					<rect id="SVGID_125_" x="192.567" y="100.569" width="4.883" height="5.877"/>
				</defs>
				<clipPath id="SVGID_126_">
					<use xlink:href="#SVGID_125_"  overflow="visible"/>
				</clipPath>
				<path clip-path="url(#SVGID_126_)" fill="#231F20" d="M192.579,101.351c0,0-0.365,3.014,2.955,5.095
					c0,0,1.089-0.055,1.916-0.715c0,0-2.629-1.584-3.128-5.162C194.322,100.569,193.244,101.208,192.579,101.351"/>
			</g>
		</g>
		<g clip-path="url(#SVGID_74_)">
			<g>
				<defs>
					<rect id="SVGID_127_" x="194.005" y="106.023" width="9.205" height="8.737"/>
				</defs>
				<clipPath id="SVGID_128_">
					<use xlink:href="#SVGID_127_"  overflow="visible"/>
				</clipPath>
				<path clip-path="url(#SVGID_128_)" fill="#231F20" d="M197.834,106.023c0,0-0.678,0.694-2.034,0.895
					c0,0,0.335,4.424-1.794,7.317c0,0,1.074,0.431,1.61,0.479c0,0,1.066-1.863,1.017-3.329c0,0,0.68,1.648,0.471,3.265
					c0,0,1.543,0.255,2.11-0.011c0,0,0.03-4.059-1.717-7.307c0,0,2.033,3.657,2.427,6.17c0,0,0.538-1.659-1.979-6.291l1.023,1.569
					l-1.021-2.403c0,0,3.062,3.808,4.163,7.254c0,0,0.995-0.479,1.102-0.655C203.211,112.976,200.843,109.236,197.834,106.023"/>
			</g>
		</g>
		<g clip-path="url(#SVGID_74_)">
			<g>
				<defs>
					<rect id="SVGID_129_" x="133.865" y="162.817" width="49.061" height="24.444"/>
				</defs>
				<clipPath id="SVGID_130_">
					<use xlink:href="#SVGID_129_"  overflow="visible"/>
				</clipPath>
				<path clip-path="url(#SVGID_130_)" fill="#231F20" d="M175.222,187.261c0,0,7.747-4.612,7.704-11.842
					c0,0-3.602,4.303-9.141,6.06c0,0,10.502-5.904,4.907-18.466c0,0-1.157,9.255-6.143,12.594c0,0,0.268-8.921-4.166-12.79
					c0,0,0.344,9.014-8.823,13.897c0,0-4.486,1.387-12.354,1.269c-7.867-0.119-8.76-0.153-10.845,1.173
					c-2.086,1.324-2.495,2.888-2.495,2.888s1.538-2.171,4.594-2.74c3.057-0.568,22.576-0.14,34.534,4.387
					C172.994,183.691,175.044,186.413,175.222,187.261"/>
			</g>
		</g>
		<g clip-path="url(#SVGID_74_)">
			<g>
				<defs>
					<rect id="SVGID_131_" x="113.877" y="198.015" width="18.931" height="49.404"/>
				</defs>
				<clipPath id="SVGID_132_">
					<use xlink:href="#SVGID_131_"  overflow="visible"/>
				</clipPath>
				<path clip-path="url(#SVGID_132_)" fill="#231F20" d="M113.876,205.372c0,0,0.553,12.377,7.331,24.58
					c6.777,12.204,8.887,17.467,8.887,17.467l-5.322-21.105c0,0-5.382-2.8-6.771-9.593c-1.665-8.136,4.882-11.28,7.974-8.699
					c3.091,2.582,5.083,6.337,5.083,6.337s2.161-6.049,1.679-7.884c0,0-3.471-3.267-3.787-8.46
					C128.95,198.015,121.488,204.686,113.876,205.372"/>
			</g>
		</g>
		<g clip-path="url(#SVGID_74_)">
			<g>
				<defs>
					<rect id="SVGID_133_" x="128.416" y="230.431" width="21.89" height="28.293"/>
				</defs>
				<clipPath id="SVGID_134_">
					<use xlink:href="#SVGID_133_"  overflow="visible"/>
				</clipPath>
				<path clip-path="url(#SVGID_134_)" fill="#231F20" d="M128.416,230.431c0,0,11.225,19.469,21.891,24.871l-4.156,3.423
					C146.15,258.725,132.872,245.387,128.416,230.431"/>
			</g>
		</g>
		<g clip-path="url(#SVGID_74_)">
			<g>
				<defs>
					<rect id="SVGID_135_" x="167.491" y="219.411" width="8.344" height="5.643"/>
				</defs>
				<clipPath id="SVGID_136_">
					<use xlink:href="#SVGID_135_"  overflow="visible"/>
				</clipPath>
				<path clip-path="url(#SVGID_136_)" fill="#231F20" d="M175.836,219.683c0,0-4.234,4.281-4.932,5.354
					c0,0-2.017,0.243-3.413-1.126l6.478-4.5L175.836,219.683z"/>
			</g>
		</g>
		<g clip-path="url(#SVGID_74_)">
			<g>
				<defs>
					<rect id="SVGID_137_" x="169.401" y="183.804" width="12.342" height="47.476"/>
				</defs>
				<clipPath id="SVGID_138_">
					<use xlink:href="#SVGID_137_"  overflow="visible"/>
				</clipPath>
				<path clip-path="url(#SVGID_138_)" fill="#FFFFFF" d="M172.257,184.754c0,0,6.087,10.317,7.095,13.356
					c0,0-0.924,5.091-0.25,9.001c0.675,3.911,1.829,7.288,2.416,9.379c0.588,2.094-0.135,9.088-0.349,10.639
					s-2.525,4.149-2.525,4.149s2.813-12.262,1.903-14.656c-0.909-2.395-3.275-6.624-3.372-10.594
					c-0.097-3.968,0.604-7.662,0.604-7.662l-8.377-14.563L172.257,184.754z"/>
			</g>
		</g>
	</g>
</g>
</svg>
